<svg class="w-full h-full m-4 fill-current text-brand-400" width="40" height="40" preserveAspectRatio="xMidYMid" viewBox="0 0 15 34" fill="none" xmlns="http://www.w3.org/2000/svg">
<path d="M7.33419 0C6.03777 0 4.79446 0.514997 3.87776 1.4317C2.96106 2.3484 2.44606 3.59171 2.44606 4.88812C2.44606 6.18453 2.96106 7.42785 3.87776 8.34455C4.79446 9.26125 6.03777 9.77624 7.33419 9.77624C8.6306 9.77624 9.87391 9.26125 10.7906 8.34455C11.7073 7.42785 12.2223 6.18453 12.2223 4.88812C12.2223 3.59171 11.7073 2.3484 10.7906 1.4317C9.87391 0.514997 8.6306 0 7.33419 0ZM10.3404 10.9738H4.32799C3.18067 10.9738 2.08034 11.4296 1.26906 12.2409C0.457776 13.0522 0.00200303 14.1525 0.00200303 15.2998V21.7521C-0.024705 22.4313 0.216545 23.0937 0.67374 23.5966C1.13094 24.0996 1.76745 24.4027 2.44606 24.4406V30.1353C2.44606 30.9131 2.75506 31.6591 3.30508 32.2091C3.8551 32.7591 4.60109 33.0681 5.37894 33.0681H9.28943C9.68295 33.0684 10.0725 32.9894 10.4348 32.8359C10.7972 32.6825 11.125 32.4576 11.3986 32.1749C11.6723 31.8921 11.8862 31.5571 12.0278 31.1899C12.1693 30.8227 12.2354 30.4308 12.2223 30.0375V24.4406C12.9009 24.4027 13.5374 24.0996 13.9946 23.5966C14.4518 23.0937 14.6931 22.4313 14.6664 21.7521V15.2998C14.6664 14.1525 14.2106 13.0522 13.3993 12.2409C12.588 11.4296 11.4877 10.9738 10.3404 10.9738ZM2.44606 21.9965V15.2998C2.44278 15.0518 2.48921 14.8056 2.58262 14.5758C2.67604 14.346 2.81453 14.1372 2.98995 13.9618C3.16536 13.7864 3.37413 13.6479 3.60394 13.5545C3.83375 13.461 4.07994 13.4146 4.32799 13.4179H10.3404C10.5884 13.4146 10.8346 13.461 11.0644 13.5545C11.2942 13.6479 11.503 13.7864 11.6784 13.9618C11.8538 14.1372 11.9923 14.346 12.0857 14.5758C12.1792 14.8056 12.2256 15.0518 12.2223 15.2998V21.9965H9.77825V30.0864C9.77825 30.216 9.72675 30.3404 9.63508 30.432C9.54341 30.5237 9.41908 30.5752 9.28943 30.5752H5.37894C5.2493 30.5752 5.12496 30.5237 5.03329 30.432C4.94162 30.3404 4.89012 30.216 4.89012 30.0864V21.9965H2.44606Z"/>
</svg>
