<svg id="phone" viewBox="0 0 236 467" fill="none" xmlns="http://www.w3.org/2000/svg">
<path id="case" fill-rule="evenodd" clip-rule="evenodd" d="M235.104 109.479C235.107 109.49 235.11 109.501 235.113 109.51C235.163 109.654 235.195 109.811 235.195 109.967V160C235.195 160.163 235.163 160.314 235.113 160.458C235.107 160.476 235.101 160.495 235.094 160.52C235.044 160.658 234.969 160.79 234.882 160.902C234.873 160.911 234.864 160.922 234.856 160.933C234.852 160.938 234.848 160.942 234.844 160.946C234.644 161.184 234.368 161.366 234.055 161.441C233.942 161.466 233.823 161.485 233.704 161.485H233.253V421.953C233.253 437.47 231.488 447.082 221.838 456.538C217.348 460.934 208.888 466.181 194.066 466.181H40.822C25.9998 466.181 17.5399 460.94 13.05 456.538C3.40653 447.082 1.64065 437.476 1.64065 421.953V172.975H1.0708C1.00726 172.975 0.947006 172.959 0.887658 172.943C0.865126 172.937 0.842724 172.93 0.820323 172.925V172.944C0.795275 172.938 0.770227 172.925 0.745179 172.913C0.688821 172.894 0.632463 172.875 0.582367 172.844C0.513484 172.806 0.463388 172.775 0.40703 172.725C0.356934 172.694 0.319362 172.662 0.28179 172.618C0.225432 172.562 0.181598 172.493 0.144026 172.418C0.135882 172.399 0.125383 172.382 0.115083 172.366C0.101623 172.345 0.0885005 172.324 0.0814061 172.299C0.03131 172.174 0 172.049 0 171.911V140.394C0 140.256 0.03131 140.125 0.0814061 140.006C0.0894728 139.978 0.105333 139.952 0.120621 139.927C0.129068 139.914 0.13734 139.9 0.144026 139.887C0.153522 139.872 0.162724 139.857 0.171887 139.842C0.20502 139.788 0.237641 139.736 0.28179 139.687C0.305989 139.662 0.332785 139.641 0.360505 139.618C0.375825 139.606 0.391428 139.593 0.40703 139.58C0.463388 139.536 0.519746 139.492 0.582367 139.461C0.595786 139.455 0.60885 139.449 0.621728 139.443C0.662936 139.424 0.70224 139.407 0.745179 139.392C0.76084 139.389 0.773368 139.383 0.785897 139.377C0.798416 139.37 0.810936 139.364 0.826585 139.361V139.38C0.848954 139.375 0.871324 139.368 0.893823 139.362C0.953203 139.346 1.01349 139.33 1.07706 139.33H1.64065V130.425H1.0708C1.00725 130.425 0.946982 130.409 0.887622 130.392C0.865102 130.386 0.842712 130.38 0.820323 130.375V130.394C0.795275 130.387 0.770227 130.375 0.745179 130.362L0.745003 130.362C0.688703 130.344 0.63241 130.325 0.582367 130.294C0.513484 130.256 0.463388 130.225 0.40703 130.175C0.356934 130.143 0.319362 130.112 0.28179 130.068C0.225432 130.012 0.181598 129.943 0.144026 129.868C0.135882 129.849 0.125383 129.832 0.115083 129.816C0.101623 129.794 0.0885005 129.774 0.0814061 129.749C0.03131 129.624 0 129.498 0 129.361V97.8438C0 97.7061 0.03131 97.5746 0.0814061 97.4556C0.0894733 97.4274 0.105335 97.4017 0.120624 97.377C0.12907 97.3633 0.137341 97.35 0.144026 97.3366C0.153521 97.3217 0.162721 97.3068 0.171883 97.2919C0.205018 97.2382 0.237639 97.1853 0.28179 97.1362C0.305967 97.112 0.332736 97.0905 0.36043 97.0681C0.375774 97.0558 0.391402 97.0432 0.40703 97.0298L0.407104 97.0297C0.463438 96.9859 0.519774 96.9421 0.582367 96.9108C0.595814 96.9048 0.608905 96.8988 0.621809 96.8929C0.662987 96.8741 0.702268 96.8562 0.745179 96.8419C0.760834 96.8388 0.773358 96.8325 0.785882 96.8262C0.798406 96.82 0.81093 96.8137 0.826585 96.8106V96.8294C0.848974 96.8242 0.871364 96.8181 0.893884 96.812C0.953244 96.7957 1.01351 96.7793 1.07706 96.7793H1.64691V81.3685H1.07706C1.01351 81.3685 0.953244 81.352 0.893884 81.3358C0.871364 81.3297 0.848974 81.3236 0.826585 81.3184V81.3372C0.809272 81.3337 0.793874 81.3264 0.779332 81.3195C0.767574 81.314 0.756377 81.3087 0.745179 81.3059C0.688821 81.2871 0.632463 81.262 0.582367 81.237C0.513484 81.1994 0.463388 81.1618 0.40703 81.118C0.356955 81.0867 0.319393 81.0492 0.281836 81.0116L0.28179 81.0116C0.225432 80.9489 0.181598 80.8801 0.144026 80.8112C0.135882 80.7922 0.125384 80.7755 0.115083 80.7592C0.101624 80.7378 0.0885006 80.717 0.0814061 80.6922C0.03131 80.5732 0 80.4417 0 80.304V64.6552C0 64.5174 0.03131 64.3859 0.0814061 64.267C0.0894711 64.2387 0.105327 64.2131 0.120611 64.1884C0.129062 64.1747 0.137338 64.1614 0.144026 64.148C0.153525 64.1331 0.16273 64.1181 0.171896 64.1033C0.205027 64.0495 0.237645 63.9966 0.28179 63.9476C0.319362 63.91 0.363196 63.8724 0.40703 63.8411C0.463388 63.7973 0.519746 63.7535 0.582367 63.7222C0.595824 63.7162 0.608924 63.7102 0.621837 63.7043C0.663005 63.6855 0.702278 63.6676 0.745179 63.6533C0.760832 63.6502 0.773355 63.6439 0.785878 63.6376C0.798403 63.6314 0.810928 63.6251 0.826585 63.622V63.6408C0.848963 63.6356 0.871342 63.6295 0.89385 63.6233C0.953221 63.6071 1.0135 63.5907 1.07706 63.5907H1.64691V44.2348C1.64691 28.7113 3.41279 19.0991 13.0563 9.64975C17.5461 5.24756 26.0124 0 40.822 0H194.066C208.894 0 217.348 5.24756 221.838 9.64975C231.488 19.1054 233.253 28.7113 233.253 44.2348V108.477H233.704C233.823 108.477 233.942 108.502 234.055 108.527C234.368 108.602 234.644 108.777 234.844 109.022C234.852 109.029 234.859 109.037 234.867 109.046C234.872 109.052 234.877 109.058 234.882 109.065C234.969 109.184 235.044 109.31 235.094 109.447C235.098 109.457 235.101 109.468 235.104 109.479ZM194.218 14.5314C204.013 14.5314 209.054 17.4658 211.565 19.93C217.464 25.7174 218.51 31.2477 218.51 43.9136V422.17C218.51 434.836 217.464 440.366 211.565 446.154C209.06 448.618 204.019 451.552 194.225 451.552H40.9749C31.1807 451.552 26.1396 448.611 23.6284 446.154C17.7294 440.366 16.6836 434.836 16.6836 422.17V43.9136C16.6836 31.2415 17.7357 25.7174 23.6284 19.93C26.1333 17.4658 31.1807 14.5314 40.9686 14.5314H58.9162C59.7992 14.6442 61.0955 15.1772 61.2207 17.3153C61.3961 20.2498 61.753 24.1185 64.6587 27.0969C66.9006 29.3918 69.8 30.4828 72.8121 30.4828H162.845C165.857 30.4828 168.75 29.3918 170.992 27.0969C173.897 24.1185 174.261 20.2498 174.436 17.3153C174.561 15.1835 175.851 14.6442 176.74 14.5314H194.218Z" fill="#FFCBCD"/>
<path id="mask" d="M211.565 19.93C209.054 17.4658 204.013 14.5314 194.218 14.5314H176.74C175.851 14.6442 174.561 15.1835 174.436 17.3153C174.261 20.2498 173.897 24.1185 170.992 27.0969C168.75 29.3918 165.857 30.4828 162.845 30.4828C156.338 30.4828 79.3186 30.4828 72.8121 30.4828C69.8 30.4828 66.9006 29.3918 64.6587 27.0969C61.753 24.1185 61.3961 20.2498 61.2207 17.3153C61.0955 15.1772 59.7992 14.6442 58.9162 14.5314H40.9686C31.1807 14.5314 26.1333 17.4658 23.6284 19.93C17.7357 25.7174 16.6836 31.2415 16.6836 43.9136V422.17C16.6836 434.836 17.7294 440.366 23.6284 446.153C26.1396 448.611 31.1807 451.552 40.9749 451.552H194.225C204.019 451.552 209.06 448.618 211.565 446.153C217.464 440.366 218.51 434.836 218.51 422.17V43.9136C218.51 31.2477 217.464 25.7174 211.565 19.93Z" fill="#182D32" fill-opacity="0.76"/>
<path id="frame" d="M211.565 19.93C209.054 17.4658 204.013 14.5314 194.218 14.5314H176.74C175.851 14.6442 174.561 15.1835 174.436 17.3153C174.261 20.2498 173.897 24.1185 170.992 27.0969C168.75 29.3918 165.857 30.4828 162.845 30.4828C156.338 30.4828 79.3186 30.4828 72.8121 30.4828C69.8 30.4828 66.9006 29.3918 64.6587 27.0969C61.753 24.1185 61.3961 20.2498 61.2207 17.3153C61.0955 15.1772 59.7992 14.6442 58.9162 14.5314H40.9686C31.1807 14.5314 26.1333 17.4658 23.6284 19.93C17.7357 25.7174 16.6836 31.2415 16.6836 43.9136V422.17C16.6836 434.836 17.7294 440.366 23.6284 446.153C26.1396 448.611 31.1807 451.552 40.9749 451.552H194.225C204.019 451.552 209.06 448.618 211.565 446.153C217.464 440.366 218.51 434.836 218.51 422.17V43.9136C218.51 31.2477 217.464 25.7174 211.565 19.93Z" fill="url(#paint0_linear)"/>
<path id="mask" fill-rule="evenodd" clip-rule="evenodd" d="M41.0686 455.107L41.0812 460.881H194.325C207.425 460.881 214.714 456.422 218.521 452.69C226.925 444.449 228.403 436.146 228.403 421.743V43.9814C228.403 29.5725 226.925 21.2691 218.521 13.0346C214.714 9.29616 207.425 4.84387 194.319 4.84387H41.0749C27.981 4.84387 20.6858 9.30242 16.8785 13.0346C8.4749 21.2691 6.99707 29.5788 6.99707 43.9814V421.743C6.99707 436.152 8.4749 444.455 16.8785 452.69C20.6858 456.428 27.9748 460.881 41.0686 460.881V455.107ZM194.218 14.5314C204.013 14.5314 209.054 17.4658 211.565 19.93C217.464 25.7174 218.51 31.2477 218.51 43.9136V422.17C218.51 434.836 217.464 440.366 211.565 446.154C209.06 448.618 204.019 451.552 194.225 451.552H40.9749C31.1807 451.552 26.1396 448.611 23.6284 446.154C17.7294 440.366 16.6836 434.836 16.6836 422.17V43.9136C16.6836 31.2415 17.7357 25.7174 23.6284 19.93C26.1333 17.4658 31.1807 14.5314 40.9686 14.5314H58.9162C59.7992 14.6442 61.0955 15.1772 61.2207 17.3153C61.3961 20.2498 61.753 24.1185 64.6587 27.0969C66.9006 29.3918 69.8 30.4828 72.8121 30.4828H162.845C165.857 30.4828 168.75 29.3918 170.992 27.0969C173.897 24.1185 174.261 20.2498 174.436 17.3153C174.561 15.1835 175.851 14.6442 176.74 14.5314H194.218Z" fill="#182D32"/>
<defs>
<linearGradient id="paint0_linear" x1="117.597" y1="14.5314" x2="182" y2="428" gradientUnits="userSpaceOnUse">
<stop offset="0.307292" stop-color="white" stop-opacity="0.4"/>
<stop offset="0.6249" stop-color="white" stop-opacity="0.262295"/>
<stop offset="0.625" stop-color="white" stop-opacity="0.1"/>
</linearGradient>
</defs>
</svg>
